# Blender 3.1.0
# www.blender.org
mtllib rotspike.mtl
o Cylinder
v 0.000000 -0.349421 -1.000000
v 0.000000 0.349421 -1.000000
v 0.587785 -0.349421 -0.809017
v 0.587785 0.349421 -0.809017
v 0.951057 -0.349421 -0.309017
v 0.951057 0.349421 -0.309017
v 0.951056 -0.349421 0.309017
v 0.951056 0.349421 0.309017
v 0.587785 -0.349421 0.809017
v 0.587785 0.349421 0.809017
v -0.000000 -0.349421 1.000000
v -0.000000 0.349421 1.000000
v -0.587785 -0.349421 0.809017
v -0.587785 0.349421 0.809017
v -0.951056 -0.349421 0.309017
v -0.951056 0.349421 0.309017
v -0.951056 -0.349421 -0.309017
v -0.951056 0.349421 -0.309017
v -0.587785 -0.349421 -0.809017
v -0.587785 0.349421 -0.809017
v -0.720125 -0.136561 -2.607138
v -0.720125 0.136561 -2.607138
v 2.117508 0.131795 -1.682530
v 2.117508 -0.131795 -1.682530
v 2.254527 -0.131795 -1.493939
v 2.254527 0.131795 -1.493939
v 2.227707 0.080200 1.530854
v 2.227707 -0.080200 1.530854
v 2.144327 -0.080200 1.645616
v 2.144327 0.080200 1.645616
v -0.764799 0.083447 2.592622
v -0.764799 -0.083447 2.592622
v -0.905170 -0.083447 2.547013
v -0.905170 0.083447 2.547013
v -2.702066 0.089038 0.078743
v -2.702066 -0.089038 0.078743
v -2.702066 -0.089038 -0.078743
v -2.702066 0.089038 -0.078743
v -0.949844 0.136561 -2.532497
v -0.949844 -0.136561 -2.532497
vn 0.3090 -0.0000 -0.9511
vn 0.6727 -0.0000 0.7400
vn 1.0000 -0.0000 -0.0000
vn -0.1015 -0.3300 -0.3125
vn 0.3090 -0.0000 0.9511
vn 0.2711 0.3292 -0.1970
vn -0.8090 -0.0000 0.5878
vn -0.9786 -0.0000 0.2056
vn -0.0000 0.3494 -0.0000
vn -0.8090 -0.0000 -0.5878
vn -0.4734 -0.0000 0.8808
vn -0.0000 -0.3494 -0.0000
vn 0.8090 -0.0000 -0.5878
vn 0.8090 -0.0000 0.5878
vn -0.3090 -0.0000 0.9511
vn -1.0000 -0.0000 -0.0000
vn -0.3090 -0.0000 -0.9511
vn -0.1304 -0.0000 0.9915
vn -0.1015 0.3300 -0.3125
vn -0.3916 -0.3215 -0.0000
vn 0.9014 -0.0000 0.4329
vn -0.3916 0.3215 -0.0000
vn -0.1232 -0.3205 0.3792
vn 0.6914 -0.0000 -0.7224
vn -0.1304 -0.0000 -0.9915
vn 0.9126 -0.0000 -0.4089
vn -0.1232 0.3205 0.3792
vn 0.3258 -0.3198 0.2367
vn -0.4959 -0.0000 -0.8684
vn -0.9837 -0.0000 -0.1796
vn 0.3258 0.3198 0.2367
vn 0.2711 -0.3292 -0.1970
vt 0.750000 0.490000
vt 1.000000 0.500000
vt 0.250000 0.490000
vt 1.000000 1.000000
vt 0.900000 0.500000
vt 0.891068 0.444164
vt 0.391068 0.444164
vt 0.900000 1.000000
vt 0.800000 0.500000
vt 0.978254 0.324164
vt 0.800000 1.000000
vt 0.478254 0.324164
vt 0.700000 0.500000
vt 0.978254 0.175836
vt 0.700000 1.000000
vt 0.478254 0.175836
vt 0.600000 0.500000
vt 0.891068 0.055836
vt 0.600000 1.000000
vt 0.391068 0.055836
vt 0.500000 0.500000
vt 0.750000 0.010000
vt 0.500000 1.000000
vt 0.250000 0.010000
vt 0.608932 0.055836
vt 0.400000 0.500000
vt 0.108932 0.055836
vt 0.400000 1.000000
vt 0.300000 0.500000
vt 0.521746 0.175836
vt 0.300000 1.000000
vt 0.021746 0.175836
vt 0.521746 0.324164
vt 0.200000 0.500000
vt 0.021746 0.324164
vt 0.200000 1.000000
vt 0.100000 0.500000
vt 0.608932 0.444164
vt 0.100000 1.000000
vt 0.108932 0.444164
vt 0.750000 0.490000
vt -0.000000 0.500000
vt 1.000000 0.500000
vt -0.000000 1.000000
vt 0.250000 0.490000
vt 1.000000 1.000000
vt 0.391068 0.444164
vt 0.900000 1.000000
vt 0.900000 0.500000
vt 0.891068 0.444164
vt 0.800000 0.500000
vt 0.978254 0.324164
vt 0.478254 0.324164
vt 0.800000 1.000000
vt 0.700000 1.000000
vt 0.478254 0.175836
vt 0.700000 0.500000
vt 0.978254 0.175836
vt 0.600000 0.500000
vt 0.891068 0.055836
vt 0.600000 1.000000
vt 0.391068 0.055836
vt 0.500000 1.000000
vt 0.250000 0.010000
vt 0.500000 0.500000
vt 0.750000 0.010000
vt 0.608932 0.055836
vt 0.400000 0.500000
vt 0.108932 0.055836
vt 0.400000 1.000000
vt 0.300000 1.000000
vt 0.021746 0.175836
vt 0.300000 0.500000
vt 0.521746 0.175836
vt 0.521746 0.324164
vt 0.200000 0.500000
vt 0.021746 0.324164
vt 0.200000 1.000000
vt 0.100000 1.000000
vt 0.108932 0.444164
vt 0.608932 0.444164
vt 0.100000 0.500000
s 0
f 1/2/1 2/4/1 4/8/1 3/5/1
f 6/11/2 5/9/2 25/51/2 26/54/2
f 5/9/3 6/11/3 8/15/3 7/13/3
f 1/1/4 19/38/4 40/81/4 21/41/4
f 9/17/5 10/19/5 12/23/5 11/21/5
f 4/7/6 6/12/6 26/53/6 23/47/6
f 13/26/7 14/28/7 16/31/7 15/29/7
f 19/37/8 20/39/8 39/79/8 40/82/8
f 4/7/9 2/3/9 20/40/9 18/35/9 16/32/9 14/27/9 12/24/9 10/20/9 8/16/9 6/12/9
f 17/34/10 18/36/10 20/39/10 19/37/10
f 10/19/11 9/17/11 29/59/11 30/61/11
f 1/1/12 3/6/12 5/10/12 7/14/12 9/18/12 11/22/12 13/25/12 15/30/12 17/33/12 19/38/12
f 24/49/13 23/48/13 26/54/13 25/51/13
f 28/57/14 27/55/14 30/61/14 29/59/14
f 32/65/15 31/63/15 34/70/15 33/68/15
f 36/73/16 35/71/16 38/78/16 37/76/16
f 40/82/17 39/79/17 22/44/17 21/42/17
f 15/29/18 16/31/18 35/71/18 36/73/18
f 20/40/19 2/3/19 22/45/19 39/80/19
f 17/33/20 15/30/20 36/74/20 37/75/20
f 11/21/21 12/23/21 31/63/21 32/65/21
f 16/32/22 18/35/22 38/77/22 35/72/22
f 13/25/23 11/22/23 32/66/23 33/67/23
f 7/13/24 8/15/24 27/55/24 28/57/24
f 18/36/25 17/34/25 37/76/25 38/78/25
f 2/4/26 1/2/26 21/43/26 22/46/26
f 12/24/27 14/27/27 34/69/27 31/64/27
f 9/18/28 7/14/28 28/58/28 29/60/28
f 3/5/29 4/8/29 23/48/29 24/49/29
f 14/28/30 13/26/30 33/68/30 34/70/30
f 8/16/31 10/20/31 30/62/31 27/56/31
f 5/10/32 3/6/32 24/50/32 25/52/32
